<svg xmlns="http://www.w3.org/2000/svg" width="118" height="27" fill="none"><path fill="#1D1D1F" d="M100 25.136h1.368c.216 0 .36-.036.432-.108.096-.096.144-.252.144-.468V10.376c0-.216-.048-.36-.144-.432-.072-.096-.216-.144-.432-.144H100v-.864h6.12v3.204l.18.036c.48-1.128 1.092-2.016 1.836-2.664.768-.672 1.644-1.008 2.628-1.008.6 0 1.116.072 1.548.216.432.12.84.312 1.224.576.6.432 1.068 1.032 1.404 1.8.36.768.54 1.56.54 2.376V24.56c0 .216.036.372.108.468.096.072.252.108.468.108h1.368V26h-7.848v-.864h1.152c.216 0 .36-.036.432-.108.096-.096.144-.252.144-.468V12.428c0-1.848-.552-2.772-1.656-2.772-.504 0-1.032.336-1.584 1.008-.552.672-1.02 1.56-1.404 2.664a11.31 11.31 0 0 0-.54 3.528v7.704c0 .216.036.372.108.468.096.072.252.108.468.108h1.152V26H100v-.864ZM89.492 26.432c-1.296 0-2.508-.384-3.636-1.152-1.128-.792-2.028-1.872-2.7-3.24-.672-1.368-1.008-2.892-1.008-4.572 0-1.68.336-3.204 1.008-4.572.672-1.368 1.572-2.436 2.7-3.204 1.128-.792 2.34-1.188 3.636-1.188 1.296 0 2.508.396 3.636 1.188 1.128.768 2.028 1.836 2.7 3.204.672 1.368 1.008 2.892 1.008 4.572 0 1.68-.336 3.204-1.008 4.572-.672 1.368-1.572 2.448-2.7 3.24-1.128.768-2.34 1.152-3.636 1.152Zm0-.864c1.032 0 1.74-.636 2.124-1.908.408-1.272.612-3.336.612-6.192 0-2.856-.204-4.92-.612-6.192-.384-1.272-1.092-1.908-2.124-1.908s-1.752.636-2.16 1.908c-.384 1.272-.576 3.336-.576 6.192 0 2.856.192 4.92.576 6.192.408 1.272 1.128 1.908 2.16 1.908ZM72.835 26.432c-1.487 0-2.82-.396-3.995-1.188-1.153-.816-2.053-1.908-2.7-3.276-.648-1.368-.972-2.868-.972-4.5 0-1.68.323-3.204.971-4.572.648-1.368 1.525-2.436 2.629-3.204 1.127-.792 2.352-1.188 3.671-1.188 1.465 0 2.725.528 3.78 1.584 1.056 1.032 1.753 2.4 2.089 4.104.167.768.251 1.968.251 3.6h-8.784a40.5 40.5 0 0 0 .072 2.736c.049.648.157 1.284.325 1.908.216.888.624 1.596 1.224 2.124a3.246 3.246 0 0 0 2.16.792c1.175 0 2.124-.516 2.844-1.548.72-1.032 1.151-2.244 1.295-3.636h.937c-.145 1.656-.684 3.12-1.62 4.392-.936 1.248-2.329 1.872-4.177 1.872Zm1.549-9.648c0-2.52-.168-4.38-.505-5.58-.312-1.224-.912-1.836-1.8-1.836-.887 0-1.5.612-1.835 1.836-.313 1.2-.469 3.06-.469 5.58h4.608ZM53.301 25.136h2.016c.216 0 .36-.036.432-.108.096-.096.144-.252.144-.468V1.808c0-.216-.048-.36-.144-.432-.072-.096-.216-.144-.432-.144h-2.016V.368h6.768V24.56c0 .216.036.372.108.468.096.072.252.108.468.108h2.016V26h-9.36v-.864ZM40.492 26.432c-1.32 0-2.448-.324-3.384-.972-.912-.648-1.368-1.74-1.368-3.276 0-1.56.564-2.784 1.692-3.672 1.152-.912 2.604-1.668 4.356-2.268l2.664-.936V12.86c0-1.224-.252-2.112-.756-2.664s-1.152-.828-1.944-.828c-.672 0-1.26.156-1.764.468-.48.288-.72.696-.72 1.224 0 .144.036.324.108.54.096.192.252.36.468.504.36.216.612.444.756.684.168.24.252.552.252.936 0 .576-.216 1.032-.648 1.368a2.197 2.197 0 0 1-1.368.468 2.35 2.35 0 0 1-1.62-.612c-.432-.432-.648-1.044-.648-1.836 0-.912.276-1.716.828-2.412a5.092 5.092 0 0 1 2.124-1.62 6.415 6.415 0 0 1 2.628-.576c1.728 0 3.24.468 4.536 1.404 1.296.912 1.944 2.376 1.944 4.392v9.108c0 .864.24 1.296.72 1.296.432 0 .756-.36.972-1.08.216-.72.324-1.548.324-2.484h1.008c0 1.752-.264 3.036-.792 3.852a2.93 2.93 0 0 1-1.116 1.044c-.48.264-1.032.396-1.656.396-.984 0-1.728-.144-2.232-.432-.504-.312-.924-.816-1.26-1.512h-.072c-.96 1.296-2.304 1.944-4.032 1.944Zm1.764-1.44c.936 0 1.668-.528 2.196-1.584V16.28l-2.016.72c-.792.288-1.38.84-1.764 1.656-.36.792-.54 1.86-.54 3.204 0 1.176.216 1.992.648 2.448.432.456.924.684 1.476.684ZM10.757 24.848h2.52c.336 0 .564-.06.684-.18.12-.144.18-.372.18-.684v-21.6c0-.336-.06-.564-.18-.684-.12-.12-.348-.18-.684-.18h-2.52V.368H23.43c1.416 0 2.736.264 3.96.792 1.248.528 2.244 1.26 2.988 2.196a4.816 4.816 0 0 1 1.116 3.132c0 1.584-.588 2.868-1.764 3.852-1.176.984-2.616 1.704-4.32 2.16v.216c1.104.168 2.184.528 3.24 1.08 1.08.528 1.968 1.236 2.664 2.124.696.888 1.044 1.92 1.044 3.096 0 1.464-.384 2.724-1.152 3.78-.768 1.056-1.8 1.86-3.096 2.412-1.272.528-2.676.792-4.212.792h-13.14v-1.152Zm12.024-12.816c1.296 0 2.172-.456 2.628-1.368.456-.936.684-2.328.684-4.176 0-1.56-.276-2.772-.828-3.636-.552-.888-1.308-1.332-2.268-1.332h-2.664c-.312 0-.54.06-.684.18-.12.12-.18.348-.18.684v9.648h3.312Zm0 12.816c1.272 0 2.22-.42 2.844-1.26.648-.864.972-2.388.972-4.572s-.324-3.696-.972-4.536c-.624-.864-1.572-1.296-2.844-1.296H19.47v10.8c0 .312.06.54.18.684.144.12.372.18.684.18h2.448Z"/><path fill="#780FFF" d="M3.475 26.432c-.816 0-1.488-.264-2.016-.792s-.792-1.2-.792-2.016c0-.816.264-1.488.792-2.016s1.2-.792 2.016-.792c.816 0 1.488.264 2.016.792s.792 1.2.792 2.016c0 .816-.264 1.488-.792 2.016s-1.2.792-2.016.792Z"/></svg>